<svg width="122" height="30" viewBox="0 0 122 30" fill="none" xmlns="http://www.w3.org/2000/svg">
<path d="M0.559268 24.52C1.46593 23.8 1.87927 23.4667 1.79927 23.52C4.4126 21.36 6.46593 19.5867 7.95927 18.2C9.47927 16.8133 10.7593 15.36 11.7993 13.84C12.8393 12.32 13.3593 10.84 13.3593 9.4C13.3593 8.30666 13.1059 7.45333 12.5993 6.84C12.0926 6.22666 11.3326 5.92 10.3193 5.92C9.30593 5.92 8.50593 6.30666 7.91927 7.08C7.35927 7.82667 7.07927 8.89333 7.07927 10.28H0.479268C0.532601 8.01333 1.0126 6.12 1.91927 4.6C2.8526 3.08 4.06593 1.96 5.55927 1.24C7.07927 0.519998 8.75927 0.159998 10.5993 0.159998C13.7726 0.159998 16.1593 0.973331 17.7593 2.6C19.3859 4.22667 20.1993 6.34667 20.1993 8.96C20.1993 11.8133 19.2259 14.4667 17.2793 16.92C15.3326 19.3467 12.8526 21.72 9.83927 24.04H20.6393V29.6H0.559268V24.52ZM23.6508 15C23.6508 10.4133 24.5308 6.8 26.2908 4.16C28.0775 1.52 30.9442 0.199997 34.8908 0.199997C38.8375 0.199997 41.6908 1.52 43.4508 4.16C45.2375 6.8 46.1308 10.4133 46.1308 15C46.1308 19.64 45.2375 23.28 43.4508 25.92C41.6908 28.56 38.8375 29.88 34.8908 29.88C30.9442 29.88 28.0775 28.56 26.2908 25.92C24.5308 23.28 23.6508 19.64 23.6508 15ZM39.4108 15C39.4108 12.3067 39.1175 10.24 38.5308 8.8C37.9442 7.33333 36.7308 6.6 34.8908 6.6C33.0508 6.6 31.8375 7.33333 31.2508 8.8C30.6642 10.24 30.3708 12.3067 30.3708 15C30.3708 16.8133 30.4775 18.32 30.6908 19.52C30.9042 20.6933 31.3308 21.6533 31.9708 22.4C32.6375 23.12 33.6108 23.48 34.8908 23.48C36.1708 23.48 37.1308 23.12 37.7708 22.4C38.4375 21.6533 38.8775 20.6933 39.0908 19.52C39.3042 18.32 39.4108 16.8133 39.4108 15ZM49.7446 15C49.7446 10.4133 50.6246 6.8 52.3846 4.16C54.1712 1.52 57.0379 0.199997 60.9846 0.199997C64.9312 0.199997 67.7846 1.52 69.5446 4.16C71.3312 6.8 72.2246 10.4133 72.2246 15C72.2246 19.64 71.3312 23.28 69.5446 25.92C67.7846 28.56 64.9312 29.88 60.9846 29.88C57.0379 29.88 54.1712 28.56 52.3846 25.92C50.6246 23.28 49.7446 19.64 49.7446 15ZM65.5046 15C65.5046 12.3067 65.2112 10.24 64.6246 8.8C64.0379 7.33333 62.8246 6.6 60.9846 6.6C59.1446 6.6 57.9312 7.33333 57.3446 8.8C56.7579 10.24 56.4646 12.3067 56.4646 15C56.4646 16.8133 56.5712 18.32 56.7846 19.52C56.9979 20.6933 57.4246 21.6533 58.0646 22.4C58.7312 23.12 59.7046 23.48 60.9846 23.48C62.2646 23.48 63.2246 23.12 63.8646 22.4C64.5312 21.6533 64.9712 20.6933 65.1846 19.52C65.3979 18.32 65.5046 16.8133 65.5046 15ZM90.1583 30L83.3583 20.64V30H76.5183V0.4H83.3583V16.76L90.1183 7.68H98.5583L89.2783 18.88L98.6383 30H90.1583ZM121.525 19.08H114.565V26.2H108.085V19.08H101.125V12.96H108.085V5.8H114.565V12.96H121.525V19.08Z" fill="#FF8B00"/>
</svg>
